<svg width="38" height="38" viewBox="0 0 38 38" fill="none" xmlns="http://www.w3.org/2000/svg">
<path d="M33.5833 0.25H4.41667C2.125 0.25 0.25 2.125 0.25 4.41667V33.5833C0.25 35.875 2.125 37.75 4.41667 37.75H33.5833C35.875 37.75 37.75 35.875 37.75 33.5833V4.41667C37.75 2.125 35.875 0.25 33.5833 0.25ZM16.9167 10.6667H12.75V14.8333C12.75 17.125 10.875 19 8.58333 19C10.875 19 12.75 20.875 12.75 23.1667V27.3333H16.9167V31.5H12.75C10.4583 31.5 8.58333 29.625 8.58333 27.3333V25.25C8.58333 22.9583 6.70833 21.0833 4.41667 21.0833V16.9167C6.70833 16.9167 8.58333 15.0417 8.58333 12.75V10.6667C8.58333 8.375 10.4583 6.5 12.75 6.5H16.9167V10.6667ZM33.5833 21.0833C31.2917 21.0833 29.4167 22.9583 29.4167 25.25V27.3333C29.4167 29.625 27.5417 31.5 25.25 31.5H21.0833V27.3333H25.25V23.1667C25.25 20.875 27.125 19 29.4167 19C27.125 19 25.25 17.125 25.25 14.8333V10.6667H21.0833V6.5H25.25C27.5417 6.5 29.4167 8.375 29.4167 10.6667V12.75C29.4167 15.0417 31.2917 16.9167 33.5833 16.9167V21.0833Z" fill="#E31F71"/>
</svg>
