<?xml version="1.0" encoding="utf-8"?>
<!-- Generator: Adobe Illustrator 25.2.0, SVG Export Plug-In . SVG Version: 6.00 Build 0)  -->
<svg version="1.1" id="Layer_1" xmlns="http://www.w3.org/2000/svg" xmlns:xlink="http://www.w3.org/1999/xlink" x="0px" y="0px"
	 viewBox="0 0 46 46" style="enable-background:new 0 0 46 46;" xml:space="preserve">
<style type="text/css">
	.st0{fill:#E31F71;}
</style>
<path class="st0" d="M4.3,33.9v7.8h7.8l23-23.1l-7.8-7.8L4.3,33.9z M45.1,36.2l-8.9,8.9L25.4,34.3l3.7-3.7l2.1,2.1l5.1-5.2l3,3l-3,3
	l2.2,2.1l3-2.9L45.1,36.2z M11.8,20.6L0.9,9.7l8.9-8.9l3.7,3.7L8.3,9.7l2.2,2.2l5.1-5.2l3,3l-3,2.9l2.1,2.1L11.8,20.6z M41.1,12.6
	c0.8-0.8,0.8-2.1,0-2.9l-4.9-4.8c-0.8-0.8-2.1-0.8-2.9,0l-3.8,3.8l7.8,7.8L41.1,12.6z"/>
</svg>
