<svg width="46" height="42" viewBox="0 0 46 42" fill="none" xmlns="http://www.w3.org/2000/svg">
<path d="M23.0001 17.0625C25.1459 17.0625 26.8959 18.8125 26.8959 21C26.8959 23.0834 25.1459 24.8542 23.0001 24.8542C20.8542 24.8542 19.1042 23.0834 19.1042 21C19.1042 18.8125 20.8542 17.0625 23.0001 17.0625ZM13.3542 37.6667C14.6667 38.4584 17.5417 37.25 20.8542 34.125C19.7709 32.8959 18.7084 31.5625 17.7084 30.1667C16.0296 30.006 14.3605 29.7557 12.7084 29.4167C11.6459 33.875 12.0417 36.9375 13.3542 37.6667ZM14.8334 25.7084L14.2292 24.6459C14.0001 25.25 13.7709 25.8542 13.6251 26.4375C14.1876 26.5625 14.8126 26.6667 15.4584 26.7709L14.8334 25.7084ZM28.4584 24.125L30.1459 21L28.4584 17.875C27.8334 16.7709 27.1667 15.7917 26.5626 14.8125C25.4376 14.75 24.2501 14.75 23.0001 14.75C21.7501 14.75 20.5626 14.75 19.4376 14.8125C18.8334 15.7917 18.1667 16.7709 17.5417 17.875L15.8542 21L17.5417 24.125C18.1667 25.2292 18.8334 26.2084 19.4376 27.1875C20.5626 27.25 21.7501 27.25 23.0001 27.25C24.2501 27.25 25.4376 27.25 26.5626 27.1875C27.1667 26.2084 27.8334 25.2292 28.4584 24.125ZM23.0001 10.125C22.6042 10.5834 22.1876 11.0625 21.7709 11.625H24.2292C23.8126 11.0625 23.3959 10.5834 23.0001 10.125ZM23.0001 31.875C23.3959 31.4167 23.8126 30.9375 24.2292 30.375H21.7709C22.1876 30.9375 22.6042 31.4167 23.0001 31.875ZM32.6251 4.33336C31.3334 3.54169 28.4584 4.75002 25.1459 7.87502C26.2292 9.10419 27.2917 10.4375 28.2917 11.8334C30.0001 12 31.6876 12.25 33.2918 12.5834C34.3543 8.12502 33.9584 5.06252 32.6251 4.33336ZM31.1667 16.2917L31.7709 17.3542C32.0001 16.75 32.2292 16.1459 32.3751 15.5625C31.8126 15.4375 31.1876 15.3334 30.5417 15.2292L31.1667 16.2917ZM34.1876 1.60419C37.2501 3.35419 37.5834 7.95836 36.2917 13.3334C41.5834 14.8959 45.3959 17.4792 45.3959 21C45.3959 24.5209 41.5834 27.1042 36.2917 28.6667C37.5834 34.0417 37.2501 38.6459 34.1876 40.3959C31.1459 42.1459 27.0001 40.1459 23.0001 36.3334C19.0001 40.1459 14.8542 42.1459 11.7917 40.3959C8.75008 38.6459 8.41675 34.0417 9.70842 28.6667C4.41675 27.1042 0.604248 24.5209 0.604248 21C0.604248 17.4792 4.41675 14.8959 9.70842 13.3334C8.41675 7.95836 8.75008 3.35419 11.7917 1.60419C14.8542 -0.14581 19.0001 1.85419 23.0001 5.66669C27.0001 1.85419 31.1459 -0.14581 34.1876 1.60419ZM33.5834 21C34.2918 22.5625 34.9167 24.125 35.4376 25.7084C39.8126 24.3959 42.2709 22.5209 42.2709 21C42.2709 19.4792 39.8126 17.6042 35.4376 16.2917C34.9167 17.875 34.2918 19.4375 33.5834 21ZM12.4167 21C11.7084 19.4375 11.0834 17.875 10.5626 16.2917C6.18758 17.6042 3.72925 19.4792 3.72925 21C3.72925 22.5209 6.18758 24.3959 10.5626 25.7084C11.0834 24.125 11.7084 22.5625 12.4167 21ZM31.1667 25.7084L30.5417 26.7709C31.1876 26.6667 31.8126 26.5625 32.3751 26.4375C32.2292 25.8542 32.0001 25.25 31.7709 24.6459L31.1667 25.7084ZM25.1459 34.125C28.4584 37.25 31.3334 38.4584 32.6251 37.6667C33.9584 36.9375 34.3543 33.875 33.2918 29.4167C31.6876 29.75 30.0001 30 28.2917 30.1667C27.2917 31.5625 26.2292 32.8959 25.1459 34.125ZM14.8334 16.2917L15.4584 15.2292C14.8126 15.3334 14.1876 15.4375 13.6251 15.5625C13.7709 16.1459 14.0001 16.75 14.2292 17.3542L14.8334 16.2917ZM20.8542 7.87502C17.5417 4.75002 14.6667 3.54169 13.3542 4.33336C12.0417 5.06252 11.6459 8.12502 12.7084 12.5834C14.3605 12.2444 16.0296 11.994 17.7084 11.8334C18.7084 10.4375 19.7709 9.10419 20.8542 7.87502Z" fill="#00AEFF"/>
</svg>
