<?xml version="1.0" encoding="utf-8"?>
<!-- Generator: Adobe Illustrator 25.2.0, SVG Export Plug-In . SVG Version: 6.00 Build 0)  -->
<svg version="1.1" id="Layer_1" xmlns="http://www.w3.org/2000/svg" xmlns:xlink="http://www.w3.org/1999/xlink" x="0px" y="0px"
	 viewBox="0 0 20 18" style="enable-background:new 0 0 20 18;" xml:space="preserve">
<style type="text/css">
	.st0{fill:#E31F71;}
</style>
<path class="st0" d="M7.7,17.9c1.8-0.7,1.4-2.6,0.5-3.9c-0.9-1.2-2.1-2.1-3.4-2.9C4,10.5,3.2,9.8,2.5,9C2.3,8.7,1.7,8.1,2.3,7.9
	c0.6-0.1,1.6,0.5,2.1,0.7C5.3,9,6.2,9.4,7,10l1-1.7C6.5,7.2,4.5,6.3,2.6,6C1.6,5.9,0.5,6.1,0.1,7.3c-0.3,1,0.2,2,0.8,2.8
	c1.4,1.8,3.5,2.7,5.1,4.3c0.3,0.3,0.8,0.7,1,1.2C7.1,15.9,7.1,16,6.6,16c-1.2,0-2.8-1-3.8-1.6l-1,1.7C3.3,17,5.9,18.5,7.7,17.9z
	 M18.8,2.2c0.2-0.2,0.2-0.6,0-0.8l-1.3-1.3C17.4,0.1,17.3,0,17.1,0c-0.1,0-0.3,0.1-0.4,0.2l-1,1l2.1,2.1L18.8,2.2z M9,7.9V10h2.1
	l6.1-6.2l-2.1-2.1L9,7.9z"/>
</svg>
